<svg width="214" height="67" viewBox="0 0 214 67" fill="none" xmlns="http://www.w3.org/2000/svg">
<g filter="url(#filter0_d_18_32)">
<path d="M22.4204 47.7261C18.6729 54.7245 17.171 61.2203 14.0991 59.5753C11.0271 57.9304 15.601 53.0795 19.3484 46.0812C23.0959 39.0828 26.8215 33.7777 27.6697 34.2319C28.518 34.6862 26.1678 40.7277 22.4204 47.7261Z" fill="#F48E44"/>
<path d="M50.3578 16.8C53.3911 16.8 55.4018 17.2333 56.3898 18.1C57.2911 18.88 57.7418 20.0847 57.7418 21.714C57.7418 24.2447 56.4244 25.9693 53.7898 26.888L57.5338 32.53L59.7698 32.764C59.7698 33.5093 59.5704 34.2547 59.1718 35H55.4018L50.3058 27.226H49.4738L49.3958 32.53L51.2938 32.738C51.2938 33.4487 51.0944 34.2027 50.6958 35H44.2738L44.0398 33.57C45.0798 33.154 45.8078 32.9027 46.2238 32.816C46.1891 30.684 46.1458 28.11 46.0938 25.094C46.0418 22.078 46.0071 20.0587 45.9898 19.036L43.8318 18.386C43.8491 17.9873 43.9271 17.4587 44.0658 16.8H50.3578ZM52.4118 19.582C51.8744 19.4607 51.1551 19.4 50.2538 19.4H49.5258C49.4911 21.792 49.4738 23.586 49.4738 24.782L50.7478 24.756C51.7704 24.7387 52.5764 24.5307 53.1658 24.132C53.7724 23.716 54.0758 22.9187 54.0758 21.74C54.0758 20.5613 53.5211 19.842 52.4118 19.582ZM70.9562 32.764C71.5456 32.764 72.7416 32.3567 74.5442 31.542C74.9256 32.0967 75.2116 32.738 75.4022 33.466C74.4489 34.0553 73.5129 34.5147 72.5942 34.844C71.6929 35.156 71.0516 35.312 70.6702 35.312C68.5729 35.312 66.9782 34.7313 65.8862 33.57C64.8116 32.4087 64.2742 30.762 64.2742 28.63C64.2742 26.4807 64.8116 24.756 65.8862 23.456C66.9609 22.1387 68.5556 21.48 70.6702 21.48C72.3516 21.48 73.6342 22.026 74.5182 23.118C75.4022 24.21 75.8442 25.6313 75.8442 27.382C75.8442 27.746 75.6362 28.162 75.2202 28.63L67.7322 28.5C67.7669 29.8867 68.0269 30.944 68.5122 31.672C68.9976 32.4 69.8122 32.764 70.9562 32.764ZM70.4362 23.638C69.7776 23.638 69.1622 23.768 68.5902 24.028C68.1916 24.86 67.9402 25.6313 67.8362 26.342C69.1882 26.29 70.7222 26.2553 72.4382 26.238C72.3516 24.5047 71.6842 23.638 70.4362 23.638ZM87.6409 23.638L87.2249 23.612C86.2543 23.612 85.4743 23.95 84.8849 24.626C84.3129 25.2847 84.0269 26.4027 84.0269 27.98C84.0269 29.54 84.2436 30.7273 84.6769 31.542C85.1276 32.3567 85.9856 32.764 87.2509 32.764C87.8403 32.764 89.0883 32.3653 90.9949 31.568C91.4283 32.1747 91.6623 32.8073 91.6969 33.466C90.7436 34.0553 89.8076 34.5147 88.8889 34.844C87.9876 35.1733 87.3463 35.338 86.9649 35.338C84.8329 35.338 83.2383 34.7573 82.1809 33.596C81.1236 32.4173 80.5949 30.7707 80.5949 28.656C80.5949 23.872 82.7529 21.48 87.0689 21.48C87.8143 21.48 88.5769 21.5753 89.3569 21.766C90.1543 21.9393 90.7783 22.1647 91.2289 22.442C91.1769 24.1753 90.9863 25.432 90.6569 26.212C90.0849 26.3507 89.2789 26.42 88.2389 26.42L87.6409 23.638ZM101.257 21.688C101.586 21.688 101.794 21.6967 101.881 21.714C101.881 22.5633 101.733 23.352 101.439 24.08C101.369 27.824 101.326 30.632 101.309 32.504L103.337 32.738C103.337 33.4487 103.137 34.2027 102.739 35H96.2646L96.0306 33.57C97.1053 33.1713 97.8853 32.9113 98.3706 32.79L98.0846 24.366C97.0619 24.262 96.3079 24.132 95.8226 23.976C95.8226 23.5427 95.8833 22.9187 96.0046 22.104C97.0273 21.8267 98.7779 21.688 101.257 21.688ZM101.257 16.774C101.413 17.554 101.491 18.152 101.491 18.568C101.491 18.9667 101.456 19.4173 101.387 19.92C100.693 20.076 100.104 20.154 99.6186 20.154C99.1506 20.154 98.5786 20.128 97.9026 20.076C97.7466 19.296 97.6686 18.7067 97.6686 18.308C97.6686 17.892 97.7033 17.4327 97.7726 16.93C98.4659 16.774 99.0466 16.696 99.5146 16.696C99.9999 16.696 100.581 16.722 101.257 16.774ZM115.261 35.312C114.255 35.312 113.198 34.9827 112.089 34.324C112.054 36.1613 112.037 37.548 112.037 38.484L114.065 38.718C114.065 39.4807 113.865 40.2347 113.467 40.98H106.993L106.759 39.55C107.868 39.134 108.648 38.874 109.099 38.77L108.605 24.34C107.79 24.2707 107.105 24.1407 106.551 23.95C106.551 23.3087 106.611 22.6847 106.733 22.078C107.461 21.922 109.073 21.7833 111.569 21.662C111.707 21.8873 111.863 22.2687 112.037 22.806C113.839 21.922 115.027 21.48 115.599 21.48C117.315 21.48 118.589 22.0867 119.421 23.3C120.253 24.496 120.669 26.108 120.669 28.136C120.669 30.164 120.201 31.8713 119.265 33.258C118.346 34.6273 117.011 35.312 115.261 35.312ZM112.245 25.094L112.141 31.672C112.539 32.036 113.007 32.3567 113.545 32.634C114.099 32.894 114.567 33.024 114.949 33.024C116.474 33.024 117.237 31.5593 117.237 28.63C117.237 27.538 117.124 26.6627 116.899 26.004C116.691 25.3453 116.439 24.886 116.145 24.626C115.867 24.3487 115.538 24.21 115.157 24.21C114.394 24.21 113.423 24.5047 112.245 25.094ZM131.069 32.764C131.658 32.764 132.854 32.3567 134.657 31.542C135.038 32.0967 135.324 32.738 135.515 33.466C134.562 34.0553 133.626 34.5147 132.707 34.844C131.806 35.156 131.164 35.312 130.783 35.312C128.686 35.312 127.091 34.7313 125.999 33.57C124.924 32.4087 124.387 30.762 124.387 28.63C124.387 26.4807 124.924 24.756 125.999 23.456C127.074 22.1387 128.668 21.48 130.783 21.48C132.464 21.48 133.747 22.026 134.631 23.118C135.515 24.21 135.957 25.6313 135.957 27.382C135.957 27.746 135.749 28.162 135.333 28.63L127.845 28.5C127.88 29.8867 128.14 30.944 128.625 31.672C129.11 32.4 129.925 32.764 131.069 32.764ZM130.549 23.638C129.89 23.638 129.275 23.768 128.703 24.028C128.304 24.86 128.053 25.6313 127.949 26.342C129.301 26.29 130.835 26.2553 132.551 26.238C132.464 24.5047 131.797 23.638 130.549 23.638ZM163.14 17.086L163.166 17.346C163.166 18.0567 163.053 18.6633 162.828 19.166C162.602 19.3393 162.247 19.478 161.762 19.582L166.104 32.426L168.574 32.738C168.574 33.4487 168.374 34.2027 167.976 35H161.658L161.424 33.57C162.152 33.2927 162.628 33.1107 162.854 33.024L161.814 30.086H155.964C155.444 31.6287 155.166 32.4347 155.132 32.504L156.926 32.738C156.926 33.102 156.856 33.5267 156.718 34.012C156.579 34.48 156.449 34.8093 156.328 35H150.01L149.776 33.57C150.556 33.2407 151.258 32.998 151.882 32.842L156.25 19.478C155.088 19.3047 154.213 19.0793 153.624 18.802C153.624 18.2993 153.702 17.8573 153.858 17.476C154.222 17.3547 155.071 17.216 156.406 17.06C157.758 16.8867 159.04 16.8 160.254 16.8C161.484 16.8 162.446 16.8953 163.14 17.086ZM159.786 24.236L159.032 20.804H158.772L157.94 24.392L156.718 27.642H161.06L159.786 24.236ZM181.086 35.312C180.081 35.312 179.024 34.9827 177.914 34.324C177.88 36.1613 177.862 37.548 177.862 38.484L179.89 38.718C179.89 39.4807 179.691 40.2347 179.292 40.98H172.818L172.584 39.55C173.694 39.134 174.474 38.874 174.924 38.77L174.43 24.34C173.616 24.2707 172.931 24.1407 172.376 23.95C172.376 23.3087 172.437 22.6847 172.558 22.078C173.286 21.922 174.898 21.7833 177.394 21.662C177.533 21.8873 177.689 22.2687 177.862 22.806C179.665 21.922 180.852 21.48 181.424 21.48C183.14 21.48 184.414 22.0867 185.246 23.3C186.078 24.496 186.494 26.108 186.494 28.136C186.494 30.164 186.026 31.8713 185.09 33.258C184.172 34.6273 182.837 35.312 181.086 35.312ZM178.07 25.094L177.966 31.672C178.365 32.036 178.833 32.3567 179.37 32.634C179.925 32.894 180.393 33.024 180.774 33.024C182.3 33.024 183.062 31.5593 183.062 28.63C183.062 27.538 182.95 26.6627 182.724 26.004C182.516 25.3453 182.265 24.886 181.97 24.626C181.693 24.3487 181.364 24.21 180.982 24.21C180.22 24.21 179.249 24.5047 178.07 25.094ZM198.273 35.312C197.267 35.312 196.21 34.9827 195.101 34.324C195.066 36.1613 195.049 37.548 195.049 38.484L197.077 38.718C197.077 39.4807 196.877 40.2347 196.479 40.98H190.005L189.771 39.55C190.88 39.134 191.66 38.874 192.111 38.77L191.617 24.34C190.802 24.2707 190.117 24.1407 189.563 23.95C189.563 23.3087 189.623 22.6847 189.745 22.078C190.473 21.922 192.085 21.7833 194.581 21.662C194.719 21.8873 194.875 22.2687 195.049 22.806C196.851 21.922 198.039 21.48 198.611 21.48C200.327 21.48 201.601 22.0867 202.433 23.3C203.265 24.496 203.681 26.108 203.681 28.136C203.681 30.164 203.213 31.8713 202.277 33.258C201.358 34.6273 200.023 35.312 198.273 35.312ZM195.257 25.094L195.153 31.672C195.551 32.036 196.019 32.3567 196.557 32.634C197.111 32.894 197.579 33.024 197.961 33.024C199.486 33.024 200.249 31.5593 200.249 28.63C200.249 27.538 200.136 26.6627 199.911 26.004C199.703 25.3453 199.451 24.886 199.157 24.626C198.879 24.3487 198.55 24.21 198.169 24.21C197.406 24.21 196.435 24.5047 195.257 25.094Z" fill="#F56A06"/>
<path d="M46.7701 47.592L46.7221 44.392C46.1355 44.36 45.6661 44.296 45.3141 44.2L45.3781 43.368C45.9221 43.208 46.7115 43.128 47.7461 43.128C48.0768 43.128 48.3115 43.1387 48.4501 43.16C48.4501 43.352 48.4181 43.608 48.3541 43.928C48.3008 44.2373 48.2635 44.408 48.2421 44.44L48.0981 53.896C48.5355 53.9173 48.9995 53.992 49.4901 54.12L49.4581 54.68C48.7221 55.0213 48.0715 55.192 47.5061 55.192C47.3888 55.192 47.2981 55.1867 47.2341 55.176C47.1488 55.016 47.0421 54.648 46.9141 54.072C45.6875 54.7653 44.8288 55.1387 44.3381 55.192C43.3141 55.192 42.5461 54.8027 42.0341 54.024C41.5221 53.2453 41.2661 52.248 41.2661 51.032C41.2661 49.8053 41.5221 48.776 42.0341 47.944C42.5568 47.1013 43.3248 46.68 44.3381 46.68C45.1275 46.68 45.9381 46.984 46.7701 47.592ZM44.6101 47.768C43.3621 47.768 42.7381 48.792 42.7381 50.84C42.7381 51.64 42.8661 52.3333 43.1221 52.92C43.2501 53.24 43.4368 53.496 43.6821 53.688C43.9381 53.88 44.2315 53.976 44.5621 53.976C44.8928 53.976 45.2768 53.9013 45.7141 53.752C46.1621 53.6027 46.5461 53.432 46.8661 53.24L46.7701 48.68C46.4821 48.4347 46.1301 48.2213 45.7141 48.04C45.2981 47.8587 44.9301 47.768 44.6101 47.768ZM57.097 54.104C57.5664 54.104 58.3024 53.88 59.305 53.432C59.5077 53.7093 59.6144 53.9547 59.625 54.168C59.081 54.488 58.5477 54.7387 58.025 54.92C57.5024 55.1013 57.129 55.192 56.905 55.192C55.6677 55.192 54.7237 54.824 54.073 54.088C53.4224 53.3413 53.097 52.3013 53.097 50.968C53.097 49.6347 53.4117 48.5893 54.041 47.832C54.681 47.064 55.6357 46.68 56.905 46.68C57.8864 46.68 58.633 47.032 59.145 47.736C59.6677 48.44 59.929 49.384 59.929 50.568C59.8437 50.7173 59.7744 50.8187 59.721 50.872L54.569 50.792C54.5797 51.8693 54.7664 52.6907 55.129 53.256C55.5024 53.8213 56.1584 54.104 57.097 54.104ZM58.473 49.88C58.473 49.176 58.345 48.632 58.089 48.248C57.833 47.8533 57.4064 47.656 56.809 47.656C56.2117 47.656 55.6784 47.768 55.209 47.992C54.889 48.632 54.6864 49.288 54.601 49.96C55.4437 49.9493 56.7344 49.9227 58.473 49.88ZM66.1005 43.112C66.4312 43.112 66.6659 43.1227 66.8045 43.144C66.8045 43.5173 66.7352 43.944 66.5965 44.424C66.5005 50.7173 66.4525 53.88 66.4525 53.912L67.7965 54.04C67.7965 54.3387 67.7059 54.6587 67.5245 55H63.8445L63.7965 54.44C64.2872 54.2693 64.7672 54.1413 65.2365 54.056L65.0765 44.376C64.4899 44.344 64.0205 44.28 63.6685 44.184L63.7325 43.352C64.2765 43.192 65.0659 43.112 66.1005 43.112ZM74.2593 45.352C73.9819 45.416 73.7099 45.448 73.4433 45.448C73.1873 45.448 72.9313 45.432 72.6753 45.4C72.6113 45.1013 72.5793 44.8027 72.5793 44.504C72.5793 44.1947 72.5899 43.9653 72.6113 43.816C72.8459 43.7627 73.0913 43.736 73.3473 43.736C73.6139 43.736 73.8966 43.7467 74.1953 43.768C74.2593 44.0453 74.2913 44.3173 74.2913 44.584C74.2913 44.84 74.2806 45.096 74.2593 45.352ZM71.3473 47.032C72.2539 46.872 72.9579 46.792 73.4593 46.792C73.9606 46.792 74.2806 46.8027 74.4193 46.824C74.4193 47.08 74.3873 47.3627 74.3233 47.672C74.2593 47.9813 74.2219 48.1307 74.2113 48.12L74.0673 53.912L75.4113 54.04C75.4113 54.3387 75.3206 54.6587 75.1393 55H71.4593L71.4113 54.44C71.9019 54.2693 72.3819 54.1413 72.8513 54.056C72.7873 51.3893 72.7339 49.3893 72.6913 48.056C72.0726 48.056 71.6033 47.992 71.2833 47.864L71.3473 47.032ZM82.8291 55.192C81.5491 55.192 80.5945 54.8347 79.9651 54.12C79.3358 53.3947 79.0211 52.3653 79.0211 51.032C79.0211 48.1307 80.3118 46.68 82.8931 46.68C83.3091 46.68 83.7411 46.744 84.1891 46.872C84.6371 46.9893 84.9891 47.1227 85.2451 47.272C85.2131 48.264 85.1118 48.968 84.9411 49.384C84.7491 49.4373 84.5945 49.464 84.4771 49.464H84.2051C84.1518 49.464 84.0878 49.4587 84.0131 49.448L83.6131 47.688C83.2611 47.656 83.0585 47.64 83.0051 47.64C82.2371 47.64 81.6238 47.8747 81.1651 48.344C80.7171 48.8133 80.4931 49.6027 80.4931 50.712C80.4931 51.8213 80.6638 52.664 81.0051 53.24C81.3571 53.816 82.0291 54.104 83.0211 54.104C83.4905 54.104 84.2265 53.88 85.2291 53.432C85.4318 53.7093 85.5385 53.9547 85.5491 54.168C85.0051 54.488 84.4718 54.7387 83.9491 54.92C83.4265 55.1013 83.0531 55.192 82.8291 55.192ZM92.168 45.352C91.8907 45.416 91.6187 45.448 91.352 45.448C91.096 45.448 90.84 45.432 90.584 45.4C90.52 45.1013 90.488 44.8027 90.488 44.504C90.488 44.1947 90.4987 43.9653 90.52 43.816C90.7547 43.7627 91 43.736 91.256 43.736C91.5227 43.736 91.8054 43.7467 92.104 43.768C92.168 44.0453 92.2 44.3173 92.2 44.584C92.2 44.84 92.1894 45.096 92.168 45.352ZM89.256 47.032C90.1627 46.872 90.8667 46.792 91.368 46.792C91.8694 46.792 92.1894 46.8027 92.328 46.824C92.328 47.08 92.296 47.3627 92.232 47.672C92.168 47.9813 92.1307 48.1307 92.12 48.12L91.976 53.912L93.32 54.04C93.32 54.3387 93.2294 54.6587 93.048 55H89.368L89.32 54.44C89.8107 54.2693 90.2907 54.1413 90.76 54.056C90.696 51.3893 90.6427 49.3893 90.6 48.056C89.9814 48.056 89.512 47.992 89.192 47.864L89.256 47.032ZM100.626 54.232C101.522 54.232 102.125 53.9547 102.434 53.4C102.754 52.8347 102.914 52.0347 102.914 51C102.914 49.3573 102.551 48.328 101.826 47.912C101.527 47.7413 101.106 47.656 100.562 47.656C100.029 47.656 99.5219 47.768 99.0419 47.992C98.6152 48.8133 98.4019 49.768 98.4019 50.856C98.4019 51.9013 98.5406 52.7067 98.8179 53.272C99.1379 53.912 99.7406 54.232 100.626 54.232ZM96.9299 51C96.9299 49.6453 97.2392 48.5893 97.8579 47.832C98.4766 47.064 99.4312 46.68 100.722 46.68C102.013 46.68 102.946 47.032 103.522 47.736C104.098 48.4293 104.386 49.4587 104.386 50.824C104.386 52.1893 104.077 53.2613 103.458 54.04C102.85 54.8187 101.922 55.208 100.674 55.208C99.4259 55.208 98.4872 54.8453 97.8579 54.12C97.2392 53.3947 96.9299 52.3547 96.9299 51ZM112.387 53.944C112.697 53.944 113.043 53.88 113.427 53.752C113.811 53.6133 114.126 53.448 114.371 53.256C114.329 50.984 114.291 49.2613 114.259 48.088C113.598 48.088 113.107 48.024 112.787 47.896L112.851 47.064C113.758 46.904 114.467 46.824 114.979 46.824C115.502 46.824 115.833 46.8347 115.971 46.856C115.971 47.048 115.939 47.304 115.875 47.624C115.822 47.944 115.785 48.12 115.763 48.152L115.571 53.864C116.137 53.896 116.595 53.96 116.947 54.056L116.915 54.872C116.446 55.0213 115.993 55.096 115.555 55.096C115.118 55.096 114.851 55.0907 114.755 55.08C114.553 54.6747 114.435 54.3013 114.403 53.96C113.881 54.3547 113.395 54.6587 112.947 54.872C112.51 55.0853 112.222 55.192 112.083 55.192C111.145 55.192 110.462 54.9413 110.035 54.44C109.619 53.928 109.411 53.1813 109.411 52.2C109.411 52.1893 109.459 50.824 109.555 48.104C108.937 48.104 108.366 48.0347 107.843 47.896L107.907 47.064C108.814 46.904 109.518 46.824 110.019 46.824C110.521 46.824 110.841 46.8347 110.979 46.856C110.979 47.112 110.947 47.3947 110.883 47.704C110.819 48.0133 110.782 48.1627 110.771 48.152L110.787 51.608C110.787 52.4187 110.889 53.0107 111.091 53.384C111.294 53.7573 111.726 53.944 112.387 53.944ZM121.823 53.976C122.196 54.136 122.65 54.216 123.183 54.216C123.727 54.216 124.154 54.1147 124.463 53.912C124.772 53.7093 124.927 53.432 124.927 53.08C124.927 52.728 124.783 52.4347 124.495 52.2C124.207 51.9653 123.855 51.7573 123.439 51.576C123.023 51.3947 122.607 51.2027 122.191 51C121.775 50.7973 121.423 50.5307 121.135 50.2C120.847 49.8693 120.703 49.4853 120.703 49.048C120.703 48.312 120.948 47.736 121.439 47.32C121.93 46.8933 122.607 46.68 123.471 46.68C124.346 46.68 125.167 46.8773 125.935 47.272C125.946 47.3787 125.951 47.6667 125.951 48.136C125.951 48.5947 125.903 48.9893 125.807 49.32C125.551 49.4053 125.247 49.448 124.895 49.448L124.367 47.816C124.132 47.6987 123.812 47.64 123.407 47.64C123.012 47.64 122.698 47.7467 122.463 47.96C122.228 48.1627 122.111 48.424 122.111 48.744C122.111 49.0533 122.255 49.3253 122.543 49.56C122.842 49.7947 123.199 50.008 123.615 50.2C124.031 50.3813 124.447 50.5787 124.863 50.792C125.279 50.9947 125.631 51.2667 125.919 51.608C126.218 51.9387 126.367 52.3227 126.367 52.76C126.367 53.528 126.068 54.1307 125.471 54.568C124.884 54.9947 124.159 55.208 123.295 55.208C122.826 55.208 122.324 55.1333 121.791 54.984C121.258 54.824 120.81 54.6213 120.447 54.376C120.447 53.6613 120.511 53.0267 120.639 52.472C120.884 52.4293 121.215 52.408 121.631 52.408L121.823 53.976ZM142.238 48.024C142.184 47.9707 142.067 47.944 141.886 47.944C141.704 47.944 141.432 48.008 141.07 48.136C140.718 48.264 140.398 48.4133 140.11 48.584C140.046 50.952 140.003 52.728 139.982 53.912L141.326 54.04C141.326 54.3387 141.235 54.6587 141.054 55H137.374L137.326 54.44C137.816 54.2693 138.296 54.1413 138.766 54.056C138.702 51.3467 138.648 49.3413 138.606 48.04C138.019 48.008 137.55 47.944 137.198 47.848L137.262 47.016C137.827 46.856 138.664 46.776 139.774 46.776C139.944 47.0427 140.051 47.384 140.094 47.8C141.32 47.0533 142.051 46.68 142.286 46.68C142.52 46.68 142.792 46.728 143.102 46.824C143.411 46.9093 143.64 47.0053 143.79 47.112C143.79 48.1787 143.688 49.048 143.486 49.72C143.336 49.7627 143.16 49.784 142.958 49.784C142.766 49.784 142.632 49.7787 142.558 49.768L142.238 48.024ZM151.297 54.104C151.766 54.104 152.502 53.88 153.505 53.432C153.708 53.7093 153.814 53.9547 153.825 54.168C153.281 54.488 152.748 54.7387 152.225 54.92C151.702 55.1013 151.329 55.192 151.105 55.192C149.868 55.192 148.924 54.824 148.273 54.088C147.622 53.3413 147.297 52.3013 147.297 50.968C147.297 49.6347 147.612 48.5893 148.241 47.832C148.881 47.064 149.836 46.68 151.105 46.68C152.086 46.68 152.833 47.032 153.345 47.736C153.868 48.44 154.129 49.384 154.129 50.568C154.044 50.7173 153.974 50.8187 153.921 50.872L148.769 50.792C148.78 51.8693 148.966 52.6907 149.329 53.256C149.702 53.8213 150.358 54.104 151.297 54.104ZM152.673 49.88C152.673 49.176 152.545 48.632 152.289 48.248C152.033 47.8533 151.606 47.656 151.009 47.656C150.412 47.656 149.878 47.768 149.409 47.992C149.089 48.632 148.886 49.288 148.801 49.96C149.644 49.9493 150.934 49.9227 152.673 49.88ZM161.949 55.192C160.669 55.192 159.714 54.8347 159.085 54.12C158.455 53.3947 158.141 52.3653 158.141 51.032C158.141 48.1307 159.431 46.68 162.013 46.68C162.429 46.68 162.861 46.744 163.309 46.872C163.757 46.9893 164.109 47.1227 164.365 47.272C164.333 48.264 164.231 48.968 164.061 49.384C163.869 49.4373 163.714 49.464 163.597 49.464H163.325C163.271 49.464 163.207 49.4587 163.133 49.448L162.733 47.688C162.381 47.656 162.178 47.64 162.125 47.64C161.357 47.64 160.743 47.8747 160.285 48.344C159.837 48.8133 159.613 49.6027 159.613 50.712C159.613 51.8213 159.783 52.664 160.125 53.24C160.477 53.816 161.149 54.104 162.141 54.104C162.61 54.104 163.346 53.88 164.349 53.432C164.551 53.7093 164.658 53.9547 164.669 54.168C164.125 54.488 163.591 54.7387 163.069 54.92C162.546 55.1013 162.173 55.192 161.949 55.192ZM171.287 45.352C171.01 45.416 170.738 45.448 170.471 45.448C170.215 45.448 169.959 45.432 169.703 45.4C169.639 45.1013 169.607 44.8027 169.607 44.504C169.607 44.1947 169.618 43.9653 169.639 43.816C169.874 43.7627 170.119 43.736 170.375 43.736C170.642 43.736 170.925 43.7467 171.223 43.768C171.287 44.0453 171.319 44.3173 171.319 44.584C171.319 44.84 171.309 45.096 171.287 45.352ZM168.375 47.032C169.282 46.872 169.986 46.792 170.487 46.792C170.989 46.792 171.309 46.8027 171.447 46.824C171.447 47.08 171.415 47.3627 171.351 47.672C171.287 47.9813 171.25 48.1307 171.239 48.12L171.095 53.912L172.439 54.04C172.439 54.3387 172.349 54.6587 172.167 55H168.487L168.439 54.44C168.93 54.2693 169.41 54.1413 169.879 54.056C169.815 51.3893 169.762 49.3893 169.719 48.056C169.101 48.056 168.631 47.992 168.311 47.864L168.375 47.032ZM178.561 54.184L178.481 57.608L179.873 57.72C179.873 58.0187 179.783 58.3387 179.601 58.68H175.889L175.841 58.12C176.332 57.96 176.812 57.8373 177.281 57.752C177.217 53.4 177.164 50.1627 177.121 48.04C176.641 48.0293 176.172 47.9653 175.713 47.848L175.777 47.016C176.396 46.856 177.26 46.776 178.369 46.776C178.465 46.9467 178.556 47.2613 178.641 47.72C180.007 47.0267 180.871 46.68 181.233 46.68C182.225 46.68 182.961 47.0693 183.441 47.848C183.921 48.616 184.161 49.6187 184.161 50.856C184.161 52.0827 183.889 53.112 183.345 53.944C182.812 54.776 182.033 55.192 181.009 55.192C180.625 55.192 180.204 55.096 179.745 54.904C179.297 54.712 178.903 54.472 178.561 54.184ZM180.945 47.88C180.284 47.88 179.516 48.1147 178.641 48.584C178.62 50.568 178.599 52.056 178.577 53.048C178.844 53.3147 179.196 53.56 179.633 53.784C180.081 53.9973 180.471 54.104 180.801 54.104C182.06 54.104 182.689 53.0693 182.689 51C182.689 50.2107 182.599 49.592 182.417 49.144C182.236 48.6853 182.028 48.36 181.793 48.168C181.559 47.976 181.276 47.88 180.945 47.88ZM192.099 54.104C192.568 54.104 193.304 53.88 194.307 53.432C194.51 53.7093 194.616 53.9547 194.627 54.168C194.083 54.488 193.55 54.7387 193.027 54.92C192.504 55.1013 192.131 55.192 191.907 55.192C190.67 55.192 189.726 54.824 189.075 54.088C188.424 53.3413 188.099 52.3013 188.099 50.968C188.099 49.6347 188.414 48.5893 189.043 47.832C189.683 47.064 190.638 46.68 191.907 46.68C192.888 46.68 193.635 47.032 194.147 47.736C194.67 48.44 194.931 49.384 194.931 50.568C194.846 50.7173 194.776 50.8187 194.723 50.872L189.571 50.792C189.582 51.8693 189.768 52.6907 190.131 53.256C190.504 53.8213 191.16 54.104 192.099 54.104ZM193.475 49.88C193.475 49.176 193.347 48.632 193.091 48.248C192.835 47.8533 192.408 47.656 191.811 47.656C191.214 47.656 190.68 47.768 190.211 47.992C189.891 48.632 189.688 49.288 189.603 49.96C190.446 49.9493 191.736 49.9227 193.475 49.88ZM200.27 53.976C200.644 54.136 201.097 54.216 201.63 54.216C202.174 54.216 202.601 54.1147 202.91 53.912C203.22 53.7093 203.374 53.432 203.374 53.08C203.374 52.728 203.23 52.4347 202.942 52.2C202.654 51.9653 202.302 51.7573 201.886 51.576C201.47 51.3947 201.054 51.2027 200.638 51C200.222 50.7973 199.87 50.5307 199.582 50.2C199.294 49.8693 199.15 49.4853 199.15 49.048C199.15 48.312 199.396 47.736 199.886 47.32C200.377 46.8933 201.054 46.68 201.918 46.68C202.793 46.68 203.614 46.8773 204.382 47.272C204.393 47.3787 204.398 47.6667 204.398 48.136C204.398 48.5947 204.35 48.9893 204.254 49.32C203.998 49.4053 203.694 49.448 203.342 49.448L202.814 47.816C202.58 47.6987 202.26 47.64 201.854 47.64C201.46 47.64 201.145 47.7467 200.91 47.96C200.676 48.1627 200.558 48.424 200.558 48.744C200.558 49.0533 200.702 49.3253 200.99 49.56C201.289 49.7947 201.646 50.008 202.062 50.2C202.478 50.3813 202.894 50.5787 203.31 50.792C203.726 50.9947 204.078 51.2667 204.366 51.608C204.665 51.9387 204.814 52.3227 204.814 52.76C204.814 53.528 204.516 54.1307 203.918 54.568C203.332 54.9947 202.606 55.208 201.742 55.208C201.273 55.208 200.772 55.1333 200.238 54.984C199.705 54.824 199.257 54.6213 198.894 54.376C198.894 53.6613 198.958 53.0267 199.086 52.472C199.332 52.4293 199.662 52.408 200.078 52.408L200.27 53.976Z" fill="white" fill-opacity="0.89"/>
<path d="M41.7415 22.8825C39.3794 27.2938 36.5273 30.879 33.8438 33.1145C32.501 34.2332 31.2206 34.997 30.0829 35.3686C28.9469 35.7398 27.9976 35.7078 27.2546 35.3099C26.5116 34.912 25.9588 34.1397 25.6379 32.9885C25.3166 31.8356 25.2425 30.3465 25.4292 28.6088C25.8023 25.1361 27.2053 20.7749 29.5674 16.3636C31.9295 11.9524 34.7816 8.36714 37.4651 6.13163C38.8079 5.01298 40.0884 4.24922 41.226 3.87755C42.362 3.50643 43.3113 3.5384 44.0543 3.93626C44.7973 4.33413 45.3502 5.10649 45.671 6.25769C45.9923 7.41061 46.0664 8.89968 45.8797 10.6374C45.5066 14.1101 44.1036 18.4713 41.7415 22.8825Z" stroke="#918F8F"/>
<path d="M42.532 4.66966L40.9924 6.03153C39.0731 7.72931 37.3194 9.60552 35.7549 11.6349L35.4932 11.9743C32.9395 15.2868 30.9517 18.9991 29.6103 22.9607V22.9607C28.6979 25.6553 28.0918 28.4441 27.8035 31.2744L27.4247 34.992" stroke="#918F8F" stroke-linecap="round"/>
<path d="M43.4952 4.05783L38.7152 11.1391L34.5025 19.0062L30.4905 26.4987L27.0459 34.7771" stroke="#918F8F" stroke-linecap="round"/>
<path d="M44.2631 4.46905L41.1727 12.455L40.1032 14.9169C38.5536 18.4843 36.7213 21.9221 34.6239 25.1975L32.948 27.8147L27.8138 35.1883" stroke="#918F8F" stroke-linecap="round"/>
<path d="M43.8396 5.44798L43.8396 7.3432C43.8396 10.8485 43.2251 14.3266 42.0241 17.6198V17.6198C41.1276 20.0777 39.9134 22.4078 38.4124 24.5506L38.0671 25.0435C35.6307 28.5217 32.5744 31.5212 29.0511 33.8919L27.4298 34.9827" stroke="#918F8F" stroke-linecap="round"/>
<path d="M25.9106 44.0531C29.2879 51.1363 33.5803 56.1371 30.4711 57.6196C27.362 59.1021 26.1787 52.6187 22.8014 45.5355C19.4241 38.4523 17.3823 32.3784 18.2408 31.969C19.0994 31.5596 22.5333 36.9698 25.9106 44.0531Z" fill="#F48E44"/>
<path d="M18.562 17.3432C20.6931 21.8127 21.7415 25.7537 21.822 28.7625C21.9032 31.7964 21.0078 33.7221 19.4547 34.4626C17.8896 35.2089 15.7251 34.7322 13.3241 32.8167C10.9429 30.917 8.44613 27.6815 6.31885 23.22C4.18485 18.7443 3.44059 15.439 3.63654 13.0768C3.82899 10.7567 4.92612 9.33432 6.58465 8.54353C8.25246 7.74831 10.1582 7.74048 12.1836 9.00148C14.2362 10.2795 16.4324 12.8769 18.562 17.3432Z" fill="#BAB3B3" stroke="#9C9999"/>
<g filter="url(#filter1_f_18_32)">
<ellipse cx="7.81476" cy="16.8825" rx="0.634692" ry="3.80815" transform="rotate(-5.2514 7.81476 16.8825)" fill="white"/>
</g>
</g>
<defs>
<filter id="filter0_d_18_32" x="0.106407" y="2.11757" width="209.708" height="64.7155" filterUnits="userSpaceOnUse" color-interpolation-filters="sRGB">
<feFlood flood-opacity="0" result="BackgroundImageFix"/>
<feColorMatrix in="SourceAlpha" type="matrix" values="0 0 0 0 0 0 0 0 0 0 0 0 0 0 0 0 0 0 127 0" result="hardAlpha"/>
<feOffset dx="1" dy="3"/>
<feGaussianBlur stdDeviation="2"/>
<feComposite in2="hardAlpha" operator="out"/>
<feColorMatrix type="matrix" values="0 0 0 0 0 0 0 0 0 0 0 0 0 0 0 0 0 0 0.25 0"/>
<feBlend mode="normal" in2="BackgroundImageFix" result="effect1_dropShadow_18_32"/>
<feBlend mode="normal" in="SourceGraphic" in2="effect1_dropShadow_18_32" result="shape"/>
</filter>
<filter id="filter1_f_18_32" x="6.09286" y="12.0899" width="3.44379" height="9.58525" filterUnits="userSpaceOnUse" color-interpolation-filters="sRGB">
<feFlood flood-opacity="0" result="BackgroundImageFix"/>
<feBlend mode="normal" in="SourceGraphic" in2="BackgroundImageFix" result="shape"/>
<feGaussianBlur stdDeviation="0.5" result="effect1_foregroundBlur_18_32"/>
</filter>
</defs>
</svg>
